<svg id="svg" version="1.1" xmlns="http://www.w3.org/2000/svg" xmlns:xlink="http://www.w3.org/1999/xlink" width="180" height="180" viewBox="0 0 400 395">
    <circle cx="205" cy="198" r="182" stroke="black" stroke-width="1" fill="#00b0ff"/>
    <path id="eurasia" d="M 309.6 50.4 C 309.6 50.4 309.6 50.4 309.6 50.4 S 304.2 46.3 304.2 46.3 S 289.7 37.2 289.7 37.2 S 271.6 28.9 271.6 28.9 S 262.6 25.8 262.6 25.8 S 248.7 21.5 248.7 21.5 S 237.7 19.5 237.7 19.5 S 225.6 18 225.6 18 S 205.7 16.6 205.7 16.6 S 193.6 16.2 193.6 16.2 S 194 16.6 194 16.6 S 194.8 17.8 194.8 17.8 S 195 19.1 195 19.1 S 194.4 20.8 194.4 20.8 S 192.7 21.1 192.7 21.1 S 189.1 21.5 189.1 21.5 S 185.7 21.7 185.7 21.7 S 182.3 21.9 182.3 21.9 S 180.4 22.4 180.4 22.4 S 179.3 23.9 179.3 23.9 S 179.6 27.6 179.6 27.6 S 184 46.5 184 46.5 S 197.4 47.6 197.4 47.6 S 198.8 47.4 198.8 47.4 S 201 46.9 201 46.9 S 206.2 44.6 206.2 44.6 S 207.8 43.2 207.8 43.2 S 208.7 41.4 208.7 41.4 S 210.5 39.4 210.5 39.4 S 211.2 38.6 211.4 38.6 S 212.3 39.6 212.3 39.6 S 212.2 40.3 212.2 40.3 S 211.8 41.8 211.8 41.8 S 207.6 46.9 207.6 46.9 S 205 49.6 205 49.6 S 199.7 57.9 199.7 57.9 S 194.4 67.1 194.4 67.1 S 194.4 68.1 194.4 68.1 S 197.6 70.2 197.6 70.2 S 206.2 74.4 206.2 74.4 S 209.3 75.2 209.3 75.2 S 218.2 75.9 218.2 75.9 S 223 75.9 223 75.9 S 224.3 75.6 224.3 75.6 S 225.4 74.1 225.4 74.1 S 225.8 71.9 225.8 71.9 S 226.3 69.2 226.3 69.2 S 226.4 67 226.4 67 S 226.4 65.1 226.4 65.1 S 226.9 62.5 226.9 62.5 S 229.9 59.2 229.9 59.2 S 233.1 56.2 233.1 56.2 S 236.9 54.1 236.9 54.1 S 241.1 53.3 241.1 53.3 S 244.5 52.6 244.5 52.6 S 246.9 53 246.9 53 S 247.7 53.2 247.7 53.2 S 248.7 53.7 248.7 53.7 S 249.8 54.8 249.8 54.8 S 250.2 56.6 250.2 56.6 S 250.2 58.1 250.2 58.1 S 250.5 59 250.5 59 S 251.9 60.8 251.9 60.8 S 256.4 63.2 256.4 63.2 S 258.7 64 258.7 64 S 261.1 64.4 261.1 64.4 S 262.4 64 262.4 64 S 264 62.9 264 62.9 S 264.4 60.5 264.4 60.5 S 263.5 57.5 263.5 57.5 S 262.4 55.4 262.4 55.4 S 261.5 53.2 261.5 53.2 S 261.1 51.7 261.1 51.7 S 261.1 50 261.1 50 S 261.7 48.7 261.7 48.7 S 263 48.2 263 48.2 S 265.1 48 265.1 48 S 267.2 48.2 267.2 48.2 S 269.5 48.7 269.7 48.7 S 271.1 48.9 271.1 48.9 S 273.8 49.6 273.8 49.6 S 276.3 49.8 276.3 49.8 S 277.4 49.8 277.4 49.8 S 278.3 49.8 278.3 49.8 S 279.6 49.5 279.6 49.5 S 280.1 49.1 280.1 49.1 S 280.1 48.3 280.1 48.2 S 280.5 47.2 280.5 47.2 S 280.5 45.9 280.5 45.9 S 279.3 43.7 279.3 43.7 S 278.2 42.5 278.2 42.5 S 278.2 42 278.2 41.8 S 278.2 41.6 278.2 41.6 S 278.7 41.2 278.7 41.2 S 280.3 41.6 280.3 41.6 S 282.1 41.8 282.1 41.8 S 283.9 42.7 283.9 42.7 S 285.4 43.2 285.4 43.2 S 286.7 43.3 286.7 43.3 S 288.2 43.9 288.2 43.9 S 293.1 46.5 293.1 46.5 S 298.2 48.2 298.2 48.2 S 302.4 49.6 302.4 49.6 S 304.2 50 304.2 50 S 304.7 50 304.7 50 S 305.6 49.8 305.6 49.8 S 306.3 49.5 306.3 49.5 S 309 50.9 309 50.9" fill="#f6f289"/>
    <text transform="matrix(1,0.2,-0.2,1,14.3,-52.4)" fill="#000000" x="212.3" y="40.9">
        Eurasia
    </text>
    <path id="NorthAmerica" d="M 141.9 26.9 C 141.9 26.9 141.9 26.9 141.9 26.9 S 103.5 48.5 103.5 48.5 S 39.6 126.2 39.6 126.2 S 41.2 181.5 41.2 181.5 S 43.1 183.5 43.1 183.5 S 46.9 184.2 46.9 184.2 S 50.8 179.6 50.8 179.6 S 73.8 146.5 73.8 146.5 S 90.8 142.7 90.8 142.7 S 99.2 151.2 99.2 151.2 S 101.9 147.3 101.9 147.3 S 100.8 135.4 100.8 135.4 S 101.9 130.8 101.9 130.8 S 110.8 122.7 110.8 122.7 S 126.5 105.4 126.5 105.4 S 141.2 85 141.2 85 S 153.1 80.4 153.1 80.4 S 159.2 77.7 159.2 77.7 S 158.8 75.8 158.8 75.8 S 152.3 61.5 152.3 61.5 S 163.1 65 163.1 65 S 184.6 46.9 184.6 46.9 S 179.6 30.8 179.6 30.8" fill="#f6f289"/>
    <text transform="matrix(0.7,-0.7,0.7,0.7,-31.3,113.8)" fill="#000000" x="67.7" y="90.8">
        North America
    </text>
    <path id="SouthAmerica" d="M 154.6 232.3 C 154.6 232.3 148.8 235.8 148.8 235.8 S 145.4 240 144.6 240 S 140.8 283.1 140.8 283.1 S 145 297.3 145 297.3 S 145.4 299.3 145.8 299.2 S 160 305.8 160 305.8 S 166.9 311.2 166.9 311.2 S 170.8 319.2 170.8 319.2 S 167.3 320.8 167.3 320.8 S 161.5 320.8 161.5 320.8 S 156.9 320 156.5 320 S 145.4 311.9 145.4 311.9 S 137.3 307.3 137.3 307.3 S 129.2 302.7 129.2 302.7 S 121.9 298.8 121.9 298.8 S 114.6 295.4 114.6 295.4 S 111.2 292.7 111.2 292.7 S 82.3 245 82.3 245 S 76.5 242.7 76.5 242.7 S 65.4 237.3 65 237.3 S 48.5 217.7 48.5 217.7 S 46.5 193.8 46.5 193.8 S 47.7 190 47.7 190 S 51.2 181.5 51.2 181.5 S 74.2 146.2 74.2 146.2 S 82.3 143.8 82.3 143.8 S 161.9 181.5 161.9 181.5" fill="#f6f289"/>
    <text fill="#000000" x="65.4" y="203.4">
        South America
    </text>
    <path id="Africa" d="M 155 300.7 C 155 300.7 148.8 278.2 148.8 278.2 S 150 243.8 149.4 243.8 S 158.7 230 158.1 230 S 161.9 181.3 161.9 181.3 S 106.9 155 106.9 155 S 106.3 133.8 106.3 133.8 S 112.5 120.7 111.9 120.7 S 123.8 107.5 123.8 107.5 S 164.4 86.3 164.4 86.3 S 206.9 97.5 206.9 97.5 S 217.5 114.4 217.5 114.4 S 227.5 115 227.5 115 S 259.4 128.2 259.4 128.2 S 265.6 198.8 265.6 198.8 S 289.4 205 289.4 205 S 276.3 222.5 276.3 222.5 S 254.4 225.7 253.8 225.7 S 243.8 243.2 243.8 243.2 S 240.6 262.5 240.6 262.5 S 178.1 305.7 178.1 305.7" fill="#f6f289"/>
    <text fill="#000000" x="180.5" y="179.9">
        Africa
    </text>
    <path d="M 271.9 121.3 C 271.9 121.3 290 127.5 290 127.5 S 305 155 305 155 S 315.6 186.3 315.6 186.3 S 300 198.1 300 198.1 S 270 195.6 270 195.6 S 258.8 128.1 258.8 128.1" fill="#f6f289"/>
    <path id="Australia" d="M 341.7 264.4 C 341.7 264.4 354.1 278.1 354.1 278.1 S 356 299.4 356 299.4 S 331.7 328.1 331.7 328.1 S 296.3 354.4 296.3 354.4 S 283.2 361.3 283.2 361.3 S 268.9 361.9 268.9 361.9 S 260.1 357.5 260.1 357.5 S 304.9 321.3 304.9 321.3 S 307.4 307.5 307.4 307.5 S 304.3 286.9 304.3 286.9 S 330.5 260 330.5 260" fill="#f6f289"/>
    <text transform="matrix(0.7,-0.7,0.7,0.7,-131.4,331.3)" fill="#000000" x="302.4" y="321.6">
        Australia
    </text>
    <path id="Antartica" d="M 204.4 323.1 C 204.4 323.1 230 332.5 230 333.1 S 248.1 335 248.1 335 S 264.4 345.6 264.4 345.6 S 289.4 334.4 289.4 334.4 S 304.4 316.3 304.4 316.3 S 306.9 299.4 306.9 299.4 S 301.9 288.8 301.9 288.8 S 278.1 274.4 278.1 274.4 S 253.1 263.8 253.1 263.8 S 243.8 265 243.8 265 S 238.8 265.6 238.8 265.6 S 196.9 292.5 196.9 292.5 S 194.4 308.1 194.4 308.1 S 185 313.1 185 313.1 S 193.1 328.8 193.1 328.8" fill="#f6f289"/>
    <text fill="#000000" x="220.5" y="306.2">
        Antartica
    </text>
    <path id="India" d="M 278.8 239.4 C 278.8 239.4 282.5 225.6 282.5 225.6 S 293.8 216.9 293.1 216.9 S 298.8 203.8 298.8 203.8 S 313.8 201.3 313.8 201.3 S 321.9 229.4 321.9 229.4 S 310 256.3 310 256.9 S 312.5 278.8 312.5 278.8 S 306.3 286.9 306.3 286.9 S 257.5 265.6 257.5 265.6 S 243.8 264.4 243.8 264.4 S 247.5 258.1 247.5 258.1" fill="#f6f289"/>
    <text fill="#000000" x="276.5" y="260.5">
        India
    </text>
    <text x="240.8" y="102.4" font-size="18" style="fill: #000000; font-size: 20; font-weight: 700">
        Tethys
    </text>
    <text transform="matrix(0.6,0.9,-0.9,0.6,248.2,-101.9)" fill="#00000" x="216.1" y="66.6">
        Pacific Ocean
    </text>
    <text transform="matrix(0.8,0.5,-0.5,0.8,130.3,-82)" fill="#000000" x="196.6" y="373.3">
        Pacific Ocean
    </text>
</svg>
