<svg id="e8f68bdd-4984-4f2e-95b7-7fc8ec281257" xmlns="http://www.w3.org/2000/svg" xmlns:xlink="http://www.w3.org/1999/xlink" width="140" height="80" viewBox="0 0 918.14 765.54">
    <defs/>
    <!--linkes Blatt-->
    <rect x="169" y="94.7" width="455" height="609.1" style="fill:#f2f2f2;stroke:#6b716f;stroke-width:1"/>
    <rect x="204.5" y="120" width="156.6" height="4.9" fill="#e0e0e0"/>
    <rect x="204.5" y="142" width="156.6" height="4.9" fill="#00b0ff" opacity="0.7"/>
    <rect opacity="0.8" x="204.5" y="170" width="93" height="4.9" fill="#6b716f"/>
    <rect x="213.6" y="224.3" width="150.6" height="101.5" fill="#ffffff"/>
    <rect fill="#f5f5f5" height="161.4" width="163.7" x="206.8" y="429.8"/>
    <rect fill="#ffffff" height="101.5" width="150.6" x="213.6" y="440.8"/>
    <!--rechtes Blatt-->
    <rect style="fill:#fefefe;stroke:#6b716f;stroke-width:1" height="455" transform="matrix(0.2,-1,1,0.2,-72.2,966.2)" width="609.1" x="359.4" y="247.3"/>
    <rect fill="#e0e0e0" height="4.9" transform="translate(-88.9,-196.9) rotate(11.2)" width="322.9" x="523.5" y="197.2"/>
    <rect x="433.4" y="650.7" width="322.9" height="4.9" transform="translate(-2.2,-170.7) rotate(11.2)" fill="#e0e0e0"/>
    <rect x="428.6" y="671.1" width="249.5" height="4.9" transform="translate(1,-162.2) rotate(11.2)" fill="#e0e0e0"/>
    <rect opacity="0.8" x="424.6" y="683.5" width="93" height="4.9" transform="translate(1.8,-145.9) rotate(11.2)" fill="#6b716f"/>
    <rect opacity="0.8" x="511.4" y="208.1" width="161.4" height="4.9" transform="matrix(1,0.2,-0.2,1,-88.2,-180.2)" fill="#6b716f"/>
    <rect x="512.8" y="249.3" width="291.1" height="4.9" transform="translate(-79.2,-190.8) rotate(11.2)" fill="#e0e0e0"/>
    <rect opacity="0.7" x="509.5" y="255.4" width="70.9" height="4.9" transform="translate(-80.2,-168.5) rotate(11.2)" fill="#3ad29f"/>
    <rect x="501.6" y="307.6" width="322.9" height="4.9" transform="translate(-67.8,-190.5) rotate(11.2)" fill="#e0e0e0"/>
    <rect fill="#ffffff" height="162.7" transform="translate(-30.4,-186.1) rotate(11.2)" width="286.2" x="516.1" y="420.6"/>
    <rect fill="#e0e0e0" height="4.9" transform="translate(-62.5,-188.9) rotate(11.2)" width="322.9" x="496.1" y="335.2"/>
    <rect x="547.9" y="424" width="35.5" height="118.6" transform="matrix(1,0.2,-0.2,1,-35.8,-168.2)" fill="#00b0ff"/>
    <rect x="606.4" y="475.2" width="35.5" height="79.5" transform="matrix(1,0.2,-0.2,1,-28.6,-179)" fill="#3ad29f"/>
    <rect x="667.6" y="536.1" width="35.5" height="42.8" transform="matrix(1,0.2,-0.2,1,-21.5,-189.9)" fill="#6b716f"/>
    <rect x="728" y="509.7" width="35.5" height="86.8" transform="matrix(1,0.2,-0.2,1,-22,-203.1)" fill="#fdd835"/>
    <!--Schloss-->
    <path d="M 724.2 638.3 C 723.4 619.1 733.2 600.9 749.7 591 C 766.3 581.1 786.9 581.1 803.4 591 C 820 600.9 829.8 619.1 828.9 638.3 v 33.5 H 843.6 V 638.3 C 843.6 601.3 813.6 571.3 776.6 571.3 C 739.5 571.3 709.5 601.3 709.5 638.3 v 33.5 H 724.2 Z" transform="matrix(1,0,0,1,-140.9,-67.2)" fill="#6b716f"/>
    <rect height="148.7" width="182.2" x="546.3" y="602.5" fill="#6b716f"/>
    <rect height="90.1" width="182.2" x="546.3" y="631.8" fill="#00b0ff"/>
    <path opacity="0.2" d="M 789.9 729.4 a 11.5 11.5 0 1 0 -19.9 7.9 v 24.6 a 8.4 8.4 0 1 0 16.8 0 V 737.3 A 11.5 11.5 0 0 0 789.9 729.4 Z" transform="translate(-140.9,-67.2)"/>
    <!--Text-->
    <text transform="matrix(1,0.2,-0.2,1,46.9,-88.5)" font-size="70" textLength="200" fill="#000000" x="438.3" y="328.9">
        Tethys
    </text>
</svg>
