<svg id="f31880e0-b367-484e-a419-f98cd1dead11" xmlns="http://www.w3.org/2000/svg" xmlns:xlink="http://www.w3.org/1999/xlink" width="130" height="80" viewBox="0 0 813.71645 690.72993">
    <defs>
    <linearGradient id="gradient" x1="0%" y1="0%" x2="0" y2="100%">
      <stop offset="0%" style="stop-color:skyblue;" />
      <stop offset="100%" style="stop-color:seagreen;" />
    </linearGradient>
    </defs>
    <rect x="366.9" y="121.2" width="208" height="302" rx="13.4" transform="matrix(1,-0.2,0.2,1,-241.6,6)" fill="#37d19e"/>
    <circle cx="163.4" cy="82.9" r="6" fill="#ffffff"/>
    <circle cx="169.4" cy="104.9" r="6" fill="#ffffff"/>
    <circle cx="208.4" cy="265.9" r="6" fill="#ffffff"/>
    <circle cx="214.4" cy="287.9" r="6" fill="#ffffff"/>
    <rect x="404.1" y="230.1" width="124.9" height="20.8" transform="translate(-234.7,4.3) rotate(-12.8)" fill="#f5f5f5"/>
    <rect x="498.1" y="285.8" width="357.6" height="446.7" transform="matrix(0.9,-0.4,0.4,0.9,-293.7,174.9)" fill="#3f3d56"/>
    <!--lable field right-->
    <rect x="580.2" y="309.6" width="198.7" height="72.8" transform="matrix(0.9,-0.4,0.4,0.9,-273.8,214)" fill="#00b0ff"/>
    <!--Zeilen-->
    <!--erste Zeile-->
    <rect x="642.9" y="535.4" width="160.6" height="6.6" transform="matrix(0.9,-0.4,0.4,0.9,-344,232.5)" fill="#00b0ff"/>
    <!--letzte Zeile-->
    <rect x="647.8" y="582.4" width="263.2" height="6.6" transform="matrix(0.9,-0.4,0.4,0.9,-344,259)" fill="#00b0ff"/>
    <!--mittlere Zeile 1-->
    <rect x="646.8" y="596.6" width="67.9" height="6.6" transform="matrix(0.9,-0.4,0.4,0.9,-361.1,214)" fill="#00b0ff"/>
    <!--mittlere Zeile 2-->
    <rect x="764.1" y="529.6" width="67.9" height="6.6" transform="matrix(0.9,-0.4,0.4,0.9,-344.2,278)" fill="#00b0ff"/>
    <!--rot-->
    <rect fill="#f5f5f5" height="200.5" transform="translate(-292.7,173.1) rotate(-17.8)" width="59.3" x="808.2" y="356.9"/>
    <rect fill="#ff5252" height="41.9" transform="translate(-271.7,162.6) rotate(-17.8)" width="41.9" x="793.7" y="363.7"/>
    <rect opacity="0.5" fill="#ff5252" height="41.9" transform="translate(-285.7,169.6) rotate(-17.8)" width="41.9" x="809.2" y="411.9"/>
    <rect opacity="0.3" fill="#ff5252" height="41.9" transform="translate(-299.7,176.6) rotate(-17.8)" width="41.9" x="824.6" y="460.1"/>
    <!--grün-->
    <rect fill="#f5f5f5" height="200.5" transform="translate(-317.2,360.7) rotate(-29.5)" width="59.3" x="792.8" y="368.2"/>
    <rect fill="#69f0ae" height="41.9" transform="translate(-289.5,333.7) rotate(-29.5)" width="41.9" x="764.1" y="381.3"/>
    <rect opacity="0.5" fill="#69f0ae" height="41.9" transform="matrix(0.9,-0.5,0.5,0.9,-307.9,351.7)" width="41.9" x="770.9" y="411"/>
    <rect opacity="0.3" fill="#69f0ae" height="41.9" transform="translate(-326.4,369.7) rotate(-29.5)" width="41.9" x="813.9" y="469.4"/>
    <!--blau-->
    <rect fill="#ffffff" height="200.5" transform="matrix(0.8,-0.6,0.6,0.8,-318.8,476.4)" width="59.3" x="783.8" y="379.8"/>
    <rect fill="#00b0ff" height="41.9" transform="matrix(0.8,-0.6,0.6,0.8,-291.4,437.1)" width="41.9" x="747.1" y="398.1"/>
    <rect opacity="0.5" fill="#00b0ff" height="41.9" transform="matrix(0.8,-0.6,0.6,0.8,-309.7,463.2)" width="41.9" x="777.3" y="438.7"/>
    <rect opacity="0.3" fill="#00b0ff" height="41.9" transform="matrix(0.8,-0.6,0.6,0.8,-327.9,489.3)" width="41.9" x="807.5" y="479.3"/>
</svg>
