<svg id="f31880e0-b367-484e-a419-f98cd1dead11" data-name="Layer 1" 
    xmlns="http://www.w3.org/2000/svg" 
    xmlns:xlink="http://www.w3.org/1999/xlink" width="130" height="80" viewBox="0 0 813.71645 690.72993">
    <defs>
        <linearGradient id="a85ba63f-8549-4f69-990e-10de2daaa97e" x1="605.01863" y1="672.36901" x2="605.01863" y2="468.40702" gradientTransform="translate(1440.44468 -163.43414) rotate(90)" gradientUnits="userSpaceOnUse">
            <stop offset="0" stop-color="grey" stop-opacity="0.25"/>
            <stop offset="0.5" stop-color="grey" stop-opacity="0.12"/>
            <stop offset="1" stop-color="grey" stop-opacity="0.1"/>
        </linearGradient>
        <linearGradient id="fdf4694c-a3d1-47e0-8113-61d7fbddb30b" x1="595.38205" y1="777.13196" x2="595.38205" y2="573.93068" gradientTransform="translate(241.97717 -218.24996)" xlink:href="#a85ba63f-8549-4f69-990e-10de2daaa97e"/>
        <linearGradient id="ad62446a-526e-4d60-a026-0c607e66ba72" x1="562.28979" y1="792.26091" x2="562.28979" y2="589.05872" gradientTransform="translate(259.71202 -221.9348)" xlink:href="#a85ba63f-8549-4f69-990e-10de2daaa97e"/>
        <linearGradient id="a55ec3fc-d644-4cb8-8fe1-ec8babf6d4d9" x1="546.3881" y1="810.62902" x2="546.3881" y2="607.42676" gradientTransform="translate(266.64986 -228.63804)" xlink:href="#a85ba63f-8549-4f69-990e-10de2daaa97e"/>
    </defs>
    <!-- <title>Specs</title> -->
    <rect x="366.9" y="121.2" width="208" height="302" rx="13.4" transform="translate(-241.6,6) rotate(-12.8)" fill="#00b0ff"/>
    <circle cx="163.4" cy="82.9" r="6" fill="#ffffff"/>
    <circle cx="169.4" cy="104.9" r="6" fill="#ffffff"/>
    <circle cx="208.4" cy="265.9" r="6" fill="#ffffff"/>
    <circle cx="214.4" cy="287.9" r="6" fill="#ffffff"/>
    <rect x="404.1" y="230.1" width="124.9" height="20.8" transform="translate(-234.7,4.3) rotate(-12.8)" fill="#f5f5f5"/>
    <rect x="537.2" y="198.5" width="357.6" height="433.7" transform="matrix(0.9,-0.4,0.4,0.9,-293.7,174.9)" fill="#3f3d56"/>
    <rect x="646.9" y="526.3" width="160.6" height="6.6" transform="translate(-333.3,186.2) rotate(-20.7)" fill="#00b0ff"/>
    <rect x="657.7" y="545.4" width="263.2" height="6.6" transform="translate(-336,209.3) rotate(-20.7)" fill="#00b0ff"/>
    <rect x="832.7" y="473.7" width="67.9" height="6.6" transform="translate(-305.7,232) rotate(-20.7)" fill="#00b0ff"/>
    <rect x="656.9" y="561.2" width="67.9" height="6.6" transform="translate(-348,175.6) rotate(-20.7)" fill="#00b0ff"/>
    <rect x="748.3" y="526.8" width="67.9" height="6.6" transform="translate(-329.9,205.7) rotate(-20.7)" fill="#00b0ff"/>
    <rect x="839.7" y="492.3" width="67.9" height="6.6" transform="translate(-311.9,235.7) rotate(-20.7)" fill="#00b0ff"/>
    <rect x="589.5" y="308.2" width="198.7" height="72.8" transform="translate(-270.4,160.8) rotate(-20.7)" fill="#00b0ff"/>
    <!-- <g opacity="0.5">
        <rect x="726.4" y="191.9" width="3" height="17" fill="#47e6b1"/>
        <rect x="919.5" y="296.5" width="3" height="17" transform="translate(1032.9,-720.7) rotate(90)" fill="#47e6b1"/>
    </g> -->
    <!-- <g opacity="0.5">
        <rect x="194.4" y="390.9" width="3" height="17" fill="#47e6b1"/>
        <rect x="387.5" y="495.5" width="3" height="17" transform="translate(699.9,10.3) rotate(90)" fill="#47e6b1"/>
    </g> -->
    <!-- <g opacity="0.5">
        <rect x="316.4" y="511.9" width="3" height="17" fill="#47e6b1"/>
        <rect x="509.5" y="616.5" width="3" height="17" transform="translate(942.9,9.3) rotate(90)" fill="#47e6b1"/>
    </g> -->
    <!-- <path d="M 947.7 687.8 a 3.7 3.7 0 0 1 -2 -4.4 a 1.8 1.8 0 0 0 0.1 -0.4 h 0 a 1.8 1.8 0 0 0 -3.3 -1.2 h 0 a 1.8 1.8 0 0 0 -0.2 0.4 a 3.7 3.7 0 0 1 -4.4 2 a 1.8 1.8 0 0 0 -0.4 -0.1 h 0 a 1.8 1.8 0 0 0 -1.2 3.3 h 0 a 1.8 1.8 0 0 0 0.4 0.2 a 3.7 3.7 0 0 1 2 4.4 a 1.8 1.8 0 0 0 -0.1 0.4 h 0 a 1.8 1.8 0 0 0 3.3 1.2 h 0 a 1.8 1.8 0 0 0 0.2 -0.4 a 3.7 3.7 0 0 1 4.4 -2 a 1.8 1.8 0 0 0 0.4 0.1 h 0 a 1.8 1.8 0 0 0 1.2 -3.3 h 0 A 1.8 1.8 0 0 0 947.7 687.8 Z" transform="translate(-193.1,-104.6)" fill="#4d8af0" opacity="0.5"/>
    <path d="M 871.7 788.8 a 3.7 3.7 0 0 1 -2 -4.4 a 1.8 1.8 0 0 0 0.1 -0.4 h 0 a 1.8 1.8 0 0 0 -3.3 -1.2 h 0 a 1.8 1.8 0 0 0 -0.2 0.4 a 3.7 3.7 0 0 1 -4.4 2 a 1.8 1.8 0 0 0 -0.4 -0.1 h 0 a 1.8 1.8 0 0 0 -1.2 3.3 h 0 a 1.8 1.8 0 0 0 0.4 0.2 a 3.7 3.7 0 0 1 2 4.4 a 1.8 1.8 0 0 0 -0.1 0.4 h 0 a 1.8 1.8 0 0 0 3.3 1.2 h 0 a 1.8 1.8 0 0 0 0.2 -0.4 a 3.7 3.7 0 0 1 4.4 -2 a 1.8 1.8 0 0 0 0.4 0.1 h 0 a 1.8 1.8 0 0 0 1.2 -3.3 h 0 A 1.8 1.8 0 0 0 871.7 788.8 Z" transform="translate(-193.1,-104.6)" fill="#4d8af0" opacity="0.5"/> -->
    <!-- <circle cx="807.7" cy="405.2" r="6" fill="#47e6b1" opacity="0.5"/>
    <g opacity="0.5">
        <rect fill="url(#a85ba63f-8549-4f69-990e-10de2daaa97e)" height="62.4" transform="translate(226.8,1202.6) rotate(-89.4)" width="204" x="768.1" y="410.4"/>
    </g> -->
  

    <!-- rot -->
    <rect fill="#f5f5f5" height="200.5" transform="translate(-292.7,173.1) rotate(-17.8)" width="59.3" x="808.2" y="356.9">
        </rect>
    <rect fill="#ff5252" height="41.9" transform="translate(-271.7,162.6) rotate(-17.8)" width="41.9" x="793.7" y="363.7">
        </rect>
    <rect opacity="0.5" fill="#ff5252" height="41.9" transform="translate(-285.7,169.6) rotate(-17.8)" width="41.9" x="809.2" y="411.9">
        </rect>
    <rect opacity="0.3" fill="#ff5252" height="41.9" transform="translate(-299.7,176.6) rotate(-17.8)" width="41.9" x="824.6" y="460.1">
        </rect>
    <!-- <g opacity="0.5">
        <rect fill="url(#ad62446a-526e-4d60-a026-0c607e66ba72)" height="203.2" transform="translate(-317.4,360.5) rotate(-29.5)" width="62.4" x="790.8" y="367.1"/>
    </g> -->

    <!-- grün -->
    <rect fill="#f5f5f5" height="200.5" transform="translate(-317.2,360.7) rotate(-29.5)" width="59.3" x="792.8" y="368.2">
        </rect>
    <rect fill="#69f0ae" height="41.9" transform="translate(-289.5,333.7) rotate(-29.5)" width="41.9" x="764.1" y="381.3">
        </rect>
    <rect opacity="0.5" fill="#69f0ae" height="41.9" transform="translate(-307.9,351.7) rotate(-29.5)" width="41.9" x="789" y="425.4">
        </rect>
    <rect opacity="0.3" fill="#69f0ae" height="41.9" transform="translate(-326.4,369.7) rotate(-29.5)" width="41.9" x="813.9" y="469.4">
        </rect>
    <!-- <g opacity="0.5">
        <rect fill="url(#a55ec3fc-d644-4cb8-8fe1-ec8babf6d4d9)" height="203.2" transform="translate(-319.1,476.2) rotate(-36.7)" width="62.4" x="781.9" y="378.8"/>
    </g> -->

     <!-- blau -->
    <rect fill="#ffffff" height="200.5" transform="translate(-318.8,476.4) rotate(-36.7)" width="59.3" x="783.8" y="379.8">
        </rect>
    <rect fill="#00b0ff" height="41.9" transform="translate(-291.4,437.1) rotate(-36.7)" width="41.9" x="747.1" y="398.1">
        </rect>
    <rect opacity="0.5" x="777.3" y="438.7" width="41.9" height="41.9" transform="translate(-309.7,463.2) rotate(-36.7)" fill="#00b0ff"/>
    <rect opacity="0.3" x="807.5" y="479.3" width="41.9" height="41.9" transform="translate(-327.9,489.3) rotate(-36.7)" fill="#00b0ff"/>
</svg>