<svg id="20095fb6-7a4b-11ea-bc55-0242ac130003" xmlns="http://www.w3.org/2000/svg" width="130" height="80" viewBox="0 0 650 650">
    <!--dashed circle-->
    <path d="M 391.5 664.1 c -2.8 0 -5.6 0 -8.3 -0.1 l 0.1 -2 c 4 0.1 8 0.2 12 0.1 l 0 2 Q 393.3 664.1 391.5 664.1 Z m 15.7 -0.5 l -0.1 -2 c 4 -0.2 8 -0.6 11.9 -1 l 0.2 2 C 415.2 663 411.2 663.4 407.2 663.6 Z m -36.1 -0.3 c -4 -0.3 -8 -0.7 -12 -1.2 l 0.2 -2 c 3.9 0.5 7.9 0.9 11.9 1.2 Z m 60 -2.2 l -0.3 -2 c 3.9 -0.6 7.9 -1.3 11.8 -2.1 l 0.4 2 C 439.1 659.8 435.1 660.5 431.2 661.1 Z m -83.9 -0.7 c -3.9 -0.7 -7.9 -1.4 -11.8 -2.3 l 0.4 -2 c 3.9 0.8 7.8 1.6 11.7 2.3 Z m 107.5 -4 l -0.5 -1.9 c 3.9 -1 7.7 -2 11.5 -3.1 l 0.6 1.9 C 462.6 654.4 458.7 655.4 454.8 656.4 Z M 323.7 655.3 c -3.9 -1 -7.8 -2.2 -11.6 -3.4 l 0.6 -1.9 c 3.8 1.2 7.6 2.3 11.5 3.3 Z m 154.2 -5.7 l -0.7 -1.9 c 3.7 -1.3 7.5 -2.7 11.2 -4.2 l 0.7 1.9 C 485.4 646.8 481.6 648.2 477.9 649.6 Z m -177.1 -1.6 c -3.8 -1.4 -7.5 -2.9 -11.2 -4.4 l 0.8 -1.8 c 3.7 1.5 7.4 3 11.1 4.4 Z m 199.5 -7.4 l -0.8 -1.8 c 3.6 -1.6 7.2 -3.4 10.7 -5.2 l 0.9 1.8 C 507.4 637.2 503.8 639 500.2 640.6 Z m 21.4 -10.9 l -1 -1.7 c 3.4 -2 6.9 -4 10.2 -6.1 l 1.1 1.7 C 528.5 625.6 525.1 627.7 521.6 629.7 Z m 20.3 -12.9 l -1.1 -1.6 c 3.2 -2.3 6.5 -4.6 9.6 -7.1 l 1.2 1.6 C 548.4 612.2 545.2 614.5 541.9 616.8 Z M 237.1 614 c -3.2 -2.3 -6.5 -4.8 -9.6 -7.3 l 1.2 -1.6 c 3.1 2.5 6.3 4.9 9.5 7.2 Z m 323.9 -11.8 l -1.3 -1.5 c 3 -2.6 6 -5.2 9 -7.9 l 1.4 1.5 C 567.1 596.9 564 599.6 561 602.2 Z m -342.7 -3.2 c -3 -2.6 -6 -5.4 -8.9 -8.1 l 1.4 -1.4 c 2.9 2.7 5.8 5.5 8.8 8.1 Z m 360.4 -13.2 l -1.4 -1.4 c 2.8 -2.8 5.5 -5.8 8.2 -8.7 l 1.5 1.3 C 584.2 580 581.5 583 578.7 585.8 Z m -377.8 -3.5 c -2.8 -2.9 -5.5 -5.9 -8.1 -8.9 l 1.5 -1.3 c 2.6 3 5.3 6 8 8.8 Z M 594.8 567.9 l -1.5 -1.3 c 2.5 -3.1 5 -6.2 7.4 -9.4 l 1.6 1.2 C 599.8 561.6 597.3 564.8 594.8 567.9 Z m -409.7 -3.8 c -2.5 -3.1 -4.9 -6.4 -7.2 -9.6 l 1.6 -1.2 c 2.3 3.2 4.7 6.4 7.2 9.5 Z M 609.2 548.6 l -1.7 -1.1 c 2.2 -3.3 4.4 -6.7 6.5 -10 l 1.7 1 C 613.7 541.9 611.5 545.3 609.2 548.6 Z m -438.2 -4 c -2.2 -3.3 -4.3 -6.8 -6.3 -10.2 l 1.7 -1 c 2 3.4 4.1 6.8 6.3 10.1 Z M 621.8 528.1 l -1.8 -1 c 1.9 -3.5 3.8 -7 5.5 -10.6 l 1.8 0.9 C 625.6 521 623.8 524.6 621.8 528.1 Z M 632.5 506.5 l -1.8 -0.8 c 1.6 -3.6 3.1 -7.4 4.5 -11.1 l 1.9 0.7 C 635.6 499.1 634.1 502.8 632.5 506.5 Z m -483.9 -4.3 c -1.5 -3.7 -3 -7.4 -4.4 -11.2 l 1.9 -0.7 c 1.4 3.7 2.8 7.5 4.3 11.1 Z m 492.6 -18.2 l -1.9 -0.6 c 1.2 -3.8 2.4 -7.6 3.5 -11.4 l 1.9 0.5 C 643.6 476.3 642.4 480.2 641.1 483.9 Z m -500.8 -4.4 c -1.2 -3.8 -2.3 -7.7 -3.3 -11.6 l 1.9 -0.5 c 1 3.8 2.1 7.7 3.3 11.5 Z m 507.3 -18.8 l -1.9 -0.5 c 0.9 -3.9 1.7 -7.8 2.4 -11.7 l 2 0.4 C 649.4 452.9 648.6 456.9 647.7 460.8 Z m -513.4 -4.5 c -0.8 -3.9 -1.6 -7.9 -2.2 -11.8 l 2 -0.3 c 0.6 3.9 1.4 7.9 2.2 11.7 Z m 517.8 -19.2 l -2 -0.3 c 0.5 -3.9 1 -7.9 1.4 -11.9 l 2 0.2 C 653 429.1 652.6 433.1 652 437.1 Z m -521.7 -4.6 c -0.5 -4 -0.9 -8 -1.2 -12 l 2 -0.1 c 0.3 4 0.7 8 1.1 11.9 Z m 523.9 -19.4 l -2 -0.1 c 0.2 -4 0.3 -8 0.3 -11.9 h 2 C 654.5 405.1 654.4 409.1 654.2 413.1 Z m -525.6 -4.6 c -0.1 -2.5 -0.1 -5 -0.1 -7.4 q 0 -2.3 0 -4.6 l 2 0 q 0 2.3 0 4.6 c 0 2.5 0 4.9 0.1 7.4 Z m 2.4 -23.9 l -2 -0.1 c 0.2 -4 0.6 -8 1 -12 l 2 0.2 C 131.6 376.6 131.2 380.6 131 384.6 Z m 520.2 -12.2 c -0.4 -3.9 -0.9 -5.9 -1.5 -9.8 l 2 -0.3 c 0.6 4 1.1 7 1.5 10.9 Z m -517.6 -11.6 l -2 -0.3 c 0.6 -4 1.3 -7.9 2.1 -11.9 l 2 0.4 C 134.9 352.9 134.2 356.9 133.6 360.8 Z M 647.6 350.8 c -0.8 -3.9 -1.6 -7.8 -2.6 -11.7 l 1.9 -0.5 c 0.9 3.9 1.8 7.8 2.6 11.8 Z M 138.3 337.4 l -1.9 -0.5 c 1 -3.9 2 -7.8 3.2 -11.6 l 1.9 0.6 C 140.3 329.7 139.3 333.5 138.3 337.4 Z m 503.7 -9.8 c -1.1 -3.8 -2.3 -7.6 -3.6 -11.4 l 1.9 -0.7 c 1.3 3.8 2.5 7.6 3.7 11.5 Z m -496.8 -13.1 l -1.9 -0.7 c 1.3 -3.8 2.8 -7.6 4.3 -11.3 l 1.9 0.8 C 147.9 307 146.5 310.7 145.2 314.5 Z m 489 -9.5 c -1.5 -3.7 -3 -7.4 -4.6 -11 l 1.8 -0.8 c 1.6 3.6 3.2 7.4 4.7 11.1 Z M 154.2 292.3 l -1.8 -0.8 c 1.7 -3.6 3.4 -7.3 5.3 -10.8 l 1.8 0.9 C 157.6 285.1 155.8 288.7 154.2 292.3 Z M 624.4 283.2 c -1.8 -3.5 -3.7 -7.1 -5.6 -10.5 l 1.7 -1 c 2 3.5 3.9 7 5.7 10.6 Z M 165.1 271 l -1.7 -1 c 2 -3.5 4.1 -6.9 6.3 -10.3 l 1.7 1.1 C 169.2 264.1 167.1 267.6 165.1 271 Z m 447.5 -8.5 c -2.1 -3.4 -4.3 -6.7 -6.6 -10 l 1.6 -1.1 c 2.3 3.3 4.5 6.6 6.6 10 Z M 178 250.9 l -1.6 -1.2 c 2.3 -3.3 4.7 -6.5 7.2 -9.7 l 1.6 1.2 C 182.7 244.4 180.3 247.6 178 250.9 Z m 421.1 -8 c -2.4 -3.2 -4.9 -6.3 -7.5 -9.3 l 1.5 -1.3 c 2.6 3.1 5.1 6.2 7.5 9.4 Z M 192.7 232 l -1.5 -1.3 c 2.6 -3 5.3 -6.1 8 -9 l 1.5 1.4 C 197.9 225.9 195.2 229 192.7 232 Z m 391.1 -7.4 c -2.7 -2.9 -5.5 -5.8 -8.3 -8.6 l 1.4 -1.4 c 2.8 2.8 5.6 5.7 8.3 8.7 Z m -374.8 -10.1 l -1.4 -1.4 c 2.9 -2.8 5.8 -5.6 8.8 -8.2 l 1.3 1.5 C 214.7 209 211.8 211.7 209 214.5 Z m 357.8 -6.8 c -2.9 -2.7 -6 -5.3 -9 -7.8 l 1.3 -1.5 c 3.1 2.5 6.1 5.2 9.1 7.9 Z m -340 -9.1 l -1.3 -1.6 c 3.1 -2.5 6.3 -5 9.5 -7.4 l 1.2 1.6 C 233 193.6 229.9 196.1 226.8 198.6 Z M 246 184.4 l -1.1 -1.7 c 3.3 -2.2 6.7 -4.4 10.1 -6.5 l 1 1.7 C 252.6 180 249.2 182.2 246 184.4 Z m 20.4 -12.4 l -1 -1.8 c 3.5 -1.9 7.1 -3.8 10.7 -5.5 l 0.9 1.8 C 273.4 168.2 269.8 170.1 266.4 172 Z m 241.4 -4.6 c -3.6 -1.8 -7.2 -3.5 -10.8 -5.1 l 0.8 -1.8 c 3.7 1.6 7.3 3.3 10.9 5.1 Z m -219.9 -5.8 l -0.8 -1.8 c 3.7 -1.6 7.4 -3.1 11.1 -4.5 l 0.7 1.9 C 295.1 158.4 291.4 159.9 287.8 161.5 Z m 198.1 -3.8 c -3.7 -1.4 -7.5 -2.8 -11.3 -4.1 l 0.6 -1.9 c 3.8 1.3 7.6 2.7 11.4 4.1 Z M 310.1 153 l -0.6 -1.9 c 3.8 -1.2 7.7 -2.4 11.5 -3.5 l 0.5 1.9 C 317.7 150.6 313.9 151.8 310.1 153 Z m 153.1 -3 c -3.8 -1.1 -7.7 -2.1 -11.6 -3 l 0.5 -1.9 c 3.9 0.9 7.8 1.9 11.7 3 Z m -130 -3.4 l -0.4 -1.9 c 3.9 -0.9 7.9 -1.7 11.8 -2.4 l 0.4 2 C 340.9 144.9 337 145.7 333.1 146.6 Z m 106.8 -2.1 c -3.9 -0.7 -7.9 -1.4 -11.8 -1.9 l 0.3 -2 c 4 0.6 8 1.2 11.9 1.9 Z m -83.3 -2.2 l -0.3 -2 c 4 -0.5 8 -1 12 -1.3 l 0.2 2 C 364.5 141.4 360.5 141.9 356.6 142.4 Z m 59.6 -1.1 c -3.9 -0.4 -7.9 -0.7 -11.9 -0.8 l 0.1 -2 c 4 0.2 8 0.5 12 0.9 Z m -35.8 -0.9 l -0.1 -2 c 3.7 -0.2 7.4 -0.2 11.1 -0.2 l 0.9 0 l 0 2 l -0.9 0 C 387.8 140.1 384.1 140.2 380.4 140.3 Z" transform="matrix(1,0,0,1,-62.2,-88.5)" fill="#3f3d56"/>
    <!--inner circle-->
    <circle cx="324" cy="307.9" r="81" fill="#3ad29f"/>
    <polygon points="375,299.9 332,299.9 332,256.9 316,256.9 316,299.9 273,299.9 273,315.9 316,315.9 316,358.9 332,358.9 332,315.9 375,315.9 375,299.9" fill="#ffffff"/>
    <!--top rectangle-->
    <rect height="130.5" width="264.5" x="224.8" y="2.5" style="fill: #f2f2f2; stroke: #6b716f; stroke-width: 2"/>
    <rect height="2" width="143.9" x="263.8" y="55.9" fill="#6b716f"/>
    <rect height="2" width="143.9" x="263.8" y="76.9" fill="#6b716f"/>
    <rect height="2" width="143.9" x="263.8" y="97.9" fill="#6b716f"/>
    <!--right rectangle-->
    <rect height="117.6" width="118.2" x="528.7" y="284.3" style="fill: #f2f2f2; stroke: #6b716f; stroke-width: 2"/>
    <rect height="2" width="66" x="544.5" y="337.4" fill="#6b716f"/>
    <rect height="2" width="66" x="544.5" y="350.4" fill="#6b716f"/>
    <rect height="2" width="66" x="544.5" y="363.4" fill="#6b716f"/>
    <rect height="2" width="457.5" x="129" y="132" fill="#6b716f"/>
    <rect height="2" width="251" x="463.5" y="400.9" fill="#6b716f"/>
    <rect height="2" width="295.1" y="572.9" fill="#6b716f"/>
    <!--left rectangle-->
    <rect height="152.6" width="151.9" x="71.4" y="420.4" style="fill: #f2f2f2; stroke: #6b716f; stroke-width: 2"/>
    <rect height="2.1" width="94.1" x="102.6" y="465" fill="#6b716f"/>
    <rect height="2.1" width="94.1" x="102.6" y="488.5" fill="#6b716f"/>
    <rect height="2.1" width="94.1" x="102.6" y="512.1" fill="#6b716f"/>
</svg>
