<?xml version="1.0" standalone="no"?>
<!DOCTYPE svg PUBLIC "-//W3C//DTD SVG 20010904//EN"
 "http://www.w3.org/TR/2001/REC-SVG-20010904/DTD/svg10.dtd">
<svg version="1.0" xmlns="http://www.w3.org/2000/svg"
 width="700.000000pt" height="700.000000pt" viewBox="0 0 700.000000 700.000000"
 preserveAspectRatio="xMidYMid meet">
<metadata>
Created by potrace 1.11, written by Peter Selinger 2001-2013
</metadata>
<g transform="translate(0.000000,700.000000) scale(0.100000,-0.100000)"
fill="#000000" stroke="none">
<path d="M1886 6648 c-6 -116 -24 -674 -29 -875 -2 -95 -4 -112 -17 -108 -8 2
-289 63 -625 135 -335 71 -654 140 -708 151 -57 13 -101 18 -106 13 -9 -10
-123 -705 -117 -712 3 -2 188 -42 413 -88 1015 -210 1126 -233 1132 -239 5 -5
-38 -1407 -44 -1413 -2 -2 -375 76 -831 173 -455 96 -831 172 -834 168 -7 -8
-122 -704 -118 -709 2 -1 396 -85 876 -187 480 -101 875 -187 878 -190 5 -5
-24 -1008 -48 -1692 l-3 -70 360 4 c198 2 361 4 362 5 1 1 14 359 29 796 15
437 29 797 31 800 5 6 38 -1 1103 -226 481 -102 878 -188 881 -192 6 -6 -10
-632 -26 -1025 l-6 -157 360 0 360 0 5 33 c3 17 10 208 16 422 14 516 18 575
39 575 9 0 272 -56 584 -123 364 -79 570 -120 572 -113 12 37 116 699 111 704
-4 3 -288 66 -633 139 -345 73 -627 134 -629 136 -1 1 9 310 22 687 13 377 23
695 24 708 0 18 4 21 23 17 50 -11 1343 -286 1357 -288 11 -1 17 14 22 63 5
36 30 196 57 355 43 259 46 291 32 297 -9 4 -340 75 -736 159 -396 83 -722
153 -724 155 -5 5 47 1692 54 1772 l5 52 -365 0 -365 0 0 -27 c1 -64 -53
-1638 -55 -1641 -4 -5 -1985 415 -1991 421 -3 3 4 274 16 603 11 330 20 609
20 622 l0 22 -364 0 -364 0 -6 -112z m1369 -2022 c924 -192 1279 -267 1287
-275 4 -3 -4 -316 -17 -696 -14 -379 -25 -696 -25 -702 0 -7 -6 -13 -12 -13
-14 -1 -1971 412 -1976 416 -5 3 39 1385 44 1402 2 7 13 10 26 7 13 -3 316
-65 673 -139z"/>
</g>
</svg>
